<svg width="200" height="200" viewBox="0 0 200 200" fill="none" xmlns="http://www.w3.org/2000/svg">
<path d="M114.821 146.829C108.247 149.851 100.933 151.583 93.1667 151.583C64.7364 151.583 41.5834 128.503 41.5834 100C41.5834 71.4915 64.6583 48.4166 93.1667 48.4166C121.66 48.4166 144.667 71.5593 144.667 100C144.667 100.911 144.643 101.817 144.597 102.717L135.5 93C134.417 91.8333 132.917 91.25 131.5 91.25C130.167 91.25 128.917 91.6666 128 92.75C125.833 94.8333 125.667 98.25 127.75 100.417L146 120C148.25 122.5 152.167 122.5 154.5 120L172.75 100.417C174.833 98.25 174.667 94.8333 172.5 92.75C170.333 90.6666 166.917 90.8333 164.833 93L155.427 103.048C155.476 102.036 155.5 101.019 155.5 100C155.5 65.6072 127.674 37.5833 93.1667 37.5833C58.6752 37.5833 30.7501 65.5084 30.7501 100C30.7501 134.497 58.7637 162.417 93.1667 162.417C102.567 162.417 111.419 160.316 119.346 156.671C122.064 155.422 123.254 152.205 122.005 149.487C120.755 146.769 117.539 145.579 114.821 146.829Z" fill="#505050"/>
</svg>
